<mxfile host="app.diagrams.net" agent="Mozilla/5.0 (Windows NT 10.0; Win64; x64) AppleWebKit/537.36 (KHTML, like Gecko) Chrome/128.0.0.0 Safari/537.36" version="24.8.2">
  <diagram name="Trang-1" id="S9i2OBRLTg7QMxOPiJB9">
    <mxGraphModel dx="1050" dy="603" grid="0" gridSize="10" guides="1" tooltips="1" connect="1" arrows="1" fold="1" page="1" pageScale="1" pageWidth="1169" pageHeight="827" math="0" shadow="0">
      <root>
        <mxCell id="0" />
        <mxCell id="1" parent="0" />
        <mxCell id="4NkoSXFLT1goXovEGL0W-24" style="edgeStyle=orthogonalEdgeStyle;rounded=0;orthogonalLoop=1;jettySize=auto;html=1;exitX=0;exitY=0.5;exitDx=0;exitDy=0;entryX=1;entryY=0.5;entryDx=0;entryDy=0;" edge="1" parent="1" source="4NkoSXFLT1goXovEGL0W-4" target="4NkoSXFLT1goXovEGL0W-20">
          <mxGeometry relative="1" as="geometry" />
        </mxCell>
        <mxCell id="4NkoSXFLT1goXovEGL0W-26" style="edgeStyle=orthogonalEdgeStyle;rounded=0;orthogonalLoop=1;jettySize=auto;html=1;exitX=0.85;exitY=0.95;exitDx=0;exitDy=0;exitPerimeter=0;entryX=0.75;entryY=0;entryDx=0;entryDy=0;" edge="1" parent="1" source="4NkoSXFLT1goXovEGL0W-4" target="4NkoSXFLT1goXovEGL0W-18">
          <mxGeometry relative="1" as="geometry" />
        </mxCell>
        <mxCell id="4NkoSXFLT1goXovEGL0W-4" value="Cơ sở&lt;div&gt;dữ liệu&lt;/div&gt;" style="shape=datastore;whiteSpace=wrap;html=1;" vertex="1" parent="1">
          <mxGeometry x="545" y="374" width="80" height="80" as="geometry" />
        </mxCell>
        <mxCell id="4NkoSXFLT1goXovEGL0W-14" style="edgeStyle=orthogonalEdgeStyle;rounded=0;orthogonalLoop=1;jettySize=auto;html=1;entryX=1;entryY=0.5;entryDx=0;entryDy=0;" edge="1" parent="1" source="4NkoSXFLT1goXovEGL0W-13" target="4NkoSXFLT1goXovEGL0W-18">
          <mxGeometry relative="1" as="geometry">
            <mxPoint x="685" y="610" as="targetPoint" />
          </mxGeometry>
        </mxCell>
        <mxCell id="4NkoSXFLT1goXovEGL0W-13" value="Camera" style="rounded=0;whiteSpace=wrap;html=1;" vertex="1" parent="1">
          <mxGeometry x="720" y="520" width="120" height="60" as="geometry" />
        </mxCell>
        <mxCell id="4NkoSXFLT1goXovEGL0W-28" style="edgeStyle=orthogonalEdgeStyle;rounded=0;orthogonalLoop=1;jettySize=auto;html=1;" edge="1" parent="1" source="4NkoSXFLT1goXovEGL0W-18" target="4NkoSXFLT1goXovEGL0W-27">
          <mxGeometry relative="1" as="geometry" />
        </mxCell>
        <mxCell id="4NkoSXFLT1goXovEGL0W-18" value="Bộ xử lí trung tâm" style="rounded=0;whiteSpace=wrap;html=1;" vertex="1" parent="1">
          <mxGeometry x="525" y="520" width="120" height="60" as="geometry" />
        </mxCell>
        <mxCell id="4NkoSXFLT1goXovEGL0W-20" value="Ứng dụng" style="rounded=0;whiteSpace=wrap;html=1;" vertex="1" parent="1">
          <mxGeometry x="330" y="330" width="120" height="60" as="geometry" />
        </mxCell>
        <mxCell id="4NkoSXFLT1goXovEGL0W-23" style="edgeStyle=orthogonalEdgeStyle;rounded=0;orthogonalLoop=1;jettySize=auto;html=1;entryX=1;entryY=0.5;entryDx=0;entryDy=0;" edge="1" parent="1" source="4NkoSXFLT1goXovEGL0W-22" target="4NkoSXFLT1goXovEGL0W-4">
          <mxGeometry relative="1" as="geometry" />
        </mxCell>
        <mxCell id="4NkoSXFLT1goXovEGL0W-22" value="Thiết bị đeo tay" style="rounded=0;whiteSpace=wrap;html=1;" vertex="1" parent="1">
          <mxGeometry x="720" y="330" width="120" height="60" as="geometry" />
        </mxCell>
        <mxCell id="4NkoSXFLT1goXovEGL0W-25" style="edgeStyle=orthogonalEdgeStyle;rounded=0;orthogonalLoop=1;jettySize=auto;html=1;exitX=0.25;exitY=0;exitDx=0;exitDy=0;entryX=0.15;entryY=0.95;entryDx=0;entryDy=0;entryPerimeter=0;" edge="1" parent="1" source="4NkoSXFLT1goXovEGL0W-18" target="4NkoSXFLT1goXovEGL0W-4">
          <mxGeometry relative="1" as="geometry" />
        </mxCell>
        <mxCell id="4NkoSXFLT1goXovEGL0W-27" value="Module SIM" style="rounded=0;whiteSpace=wrap;html=1;" vertex="1" parent="1">
          <mxGeometry x="330" y="520" width="120" height="60" as="geometry" />
        </mxCell>
      </root>
    </mxGraphModel>
  </diagram>
</mxfile>
